<?xml version="1.0" encoding="UTF-8"?>
<svg id="_图层_1" data-name="图层 1" xmlns="http://www.w3.org/2000/svg" viewBox="0 0 262.32 109.26">
  <defs>
    <style>
      .cls-1 {
        fill: #fff;
      }

      .cls-2 {
        fill: #898989;
        opacity: .5;
        stroke: #2ea7e0;
        stroke-miterlimit: 10;
        stroke-width: 3px;
      }

      .cls-3 {
        font-family: STCaiyun, STCaiyun;
        font-size: 25px;
      }

      .cls-3, .cls-4 {
        fill: #00a0e9;
      }
    </style>
  </defs>
  <path class="cls-2" d="M48.33,95.16C22.47,95.16,1.5,74.19,1.5,48.33h0C1.5,22.47,22.47,1.5,48.33,1.5H213.99c25.86,0,46.83,20.97,46.83,46.83h0c0,25.86-20.97,46.83-46.83,46.83"/>
  <g>
    <path class="cls-1" d="M43.51,36.89l1.13,1.41c.55,.69,.39,1.73-.37,2.16-.71,.4-1.43,.97-2.14,1.7-1.38,1.26-3.55,3.08-6.51,5.46-2.96,2.39-6.66,4.67-11.12,6.87l-.45-.79c2.32-1.44,4.76-3.3,7.32-5.57,2.55-2.27,4.78-4.59,6.7-6.97,1.26-1.57,2.3-2.96,3.11-4.17,.55-.82,1.73-.87,2.34-.1Zm9.25-1.84c.85-3.11,1.54-5.76,2.06-7.94,.25-1.05,1.5-1.46,2.33-.78l1.27,1.04c.84,.69,.66,2.02-.33,2.46h0c-.4,.18-.7,.52-.81,.95l-9.8,35.81c-.72,2.64-2.47,4.34-5.25,5.08-.77,.21-1.57-.23-1.79-1-.42-1.48-2.16-3.37-5.22-5.66l.28-1.04c2.89,1.39,5.02,2.27,6.4,2.64s2.34-.4,2.87-2.33l8-29.22Zm7.83,6.38c4.08,5.72,6.8,9.88,8.17,12.48,1.37,2.6,2.02,4.42,1.96,5.44-.06,1.03-.14,1.74-.26,2.16-.34,1.24-.89,2.17-1.65,2.78-.76,.61-1.28,.87-1.56,.8-.55-.15-.83-1.04-.83-2.68-.22-2.44-.86-5.39-1.91-8.88-1.05-3.48-2.63-7.36-4.72-11.65l.79-.45Z"/>
    <path class="cls-4" d="M77.34,51.96l27.48,6.14c.22,.05,.44,.02,.64-.09l2.91-1.59c.44-.24,.99-.08,1.24,.36l1.38,2.45c.39,.69-.22,1.52-1,1.35l-28.6-6.39c-1.38-.31-2.79-.45-4.23-.42-.32,0-.62-.15-.8-.42h0c-.44-.69,.18-1.57,.98-1.39Zm18.21-20l-4.62,11.83c-.2,.52,.11,1.11,.66,1.23l14.33,3.2c.44,.1,.89-.14,1.06-.57l6.67-17.32c.2-.52-.11-1.1-.66-1.23l-20.14-4.5c-1.63-.36-3.18-.53-4.66-.51-.32,0-.62-.15-.79-.42h0c-.44-.69,.18-1.57,.98-1.39l25.32,5.66c.26,.06,.52,0,.74-.15l1-.72c.42-.3,1-.2,1.29,.22l1.11,1.62c.34,.5,.12,1.19-.45,1.39l-.38,.13c-.26,.09-.46,.29-.55,.54l-6.46,17.08c-.2,.52,.11,1.1,.66,1.22l5.88,1.31c.27,.06,.55,0,.77-.17l1.34-1.05c.4-.31,.97-.24,1.29,.15l1.51,1.91c.35,.44,.22,1.1-.27,1.37l-1.01,.56c-.2,.11-.35,.3-.42,.51-2.95,8.67-5.05,14.02-6.3,16.06-1.27,2.06-2.5,3.33-3.71,3.79-1.03,.4-2.58,.62-4.66,.68-.49,.01-.95-.35-.95-.84,0-1.76-1.86-3.93-5.55-6.52l.4-.79c2.89,1.53,5.1,2.61,6.65,3.25,1.54,.64,2.73,.75,3.55,.35,.82-.4,1.79-1.76,2.89-4.09,1.05-2.21,2.63-6.46,4.73-12.76,.17-.52-.14-1.08-.67-1.19l-25.47-5.69c-.24-.05-.49,0-.69,.12l-.98,.62c-.42,.26-.97,.15-1.25-.25l-1.2-1.75c-.32-.47-.14-1.12,.38-1.36l.61-.28c.22-.1,.39-.29,.48-.51,2.78-7.16,4.55-11.98,5.31-14.47,.19-.61,.92-.84,1.43-.45l2.25,1.71c.54,.41,.46,1.26-.15,1.56l-.81,.4c-.21,.1-.37,.28-.45,.49Z"/>
    <path class="cls-1" d="M143.96,36.77c0,1.29-.07,3.8-.21,7.52h6.66l1.5-1.93,3.22,2.58-1.72,1.5c-.14,8.31-.47,13.89-.97,16.76-.5,2.87-1.26,4.73-2.26,5.59-1,.86-2.22,1.5-3.65,1.93,0-1.86-1.43-3.36-4.3-4.51l.21-.86c2.43,.72,4.19,1.07,5.26,1.07s1.83-1.83,2.26-5.48,.64-8.77,.64-15.36h-6.88c-.14,6.73-1.11,12.11-2.9,16.11-1.79,4.01-4.19,7.66-7.2,10.96l-.64-.43c3.58-5.59,5.83-10.81,6.77-15.68,.93-4.87,1.32-11.46,1.18-19.77h-3.01l-2.36,.43-1.72-1.72h17.62l2.58-2.58,3.87,3.87h-13.96Zm-2.15-12.89c2.86,1.58,4.76,2.87,5.69,3.87,.93,1,1.4,1.79,1.4,2.36,0,.72-.32,1.5-.97,2.36s-1.18,1.29-1.61,1.29-.79-.71-1.07-2.15c-.57-2.15-1.86-4.51-3.87-7.09l.43-.64Zm25.57,2.58l-2.15,1.07c-1,2.44-2.08,4.8-3.22,7.09h13.75l2.79-2.79,4.08,4.08h-21.27c-1.86,3.15-3.8,5.87-5.8,8.16l-.64-.43c3.29-5.44,5.73-12.1,7.3-19.98l5.16,2.79Zm13.75,24.92c-1.29,0-2.79,.43-4.51,1.29-1.86,.86-4.16,1.86-6.88,3.01,3.01,7.02,7.73,11.39,14.18,13.11v.86c-2.15,.14-3.51,.93-4.08,2.36-4.44-2.72-7.66-6.12-9.67-10.21-2.01-4.08-3.3-9.7-3.87-16.87-1,.29-2.36,.57-4.08,.86v22.34l7.52-4.08,.43,.86c-4.73,3.3-7.73,6.02-9.02,8.16l-2.58-2.79c.57-.72,.86-1.93,.86-3.65v-13.75c0-2.58-.07-5.87-.21-9.88l3.01,1.72c7.3-2.15,11.74-4.15,13.32-6.02l3.22,3.44c-2.01,.14-5.8,1-11.39,2.58,.43,4.16,1.14,7.52,2.15,10.1,4.15-2.58,6.95-4.87,8.38-6.88l3.22,3.44Z"/>
    <path class="cls-1" d="M202.18,48.37v23.42l-3.22,1.93c.14-3.15,.21-11.89,.21-26.21-3.3,3.44-6.52,6.23-9.67,8.38l-.43-.64c3.01-3.01,5.91-6.37,8.7-10.1,2.79-3.72,4.9-7.3,6.34-10.74l3.65,3.22-1.93,1.07c-1.86,2.72-3.44,4.87-4.73,6.45l2.36,1.93-1.29,1.29Zm-.43-24.49l3.87,3.01c-1,.29-2.72,1.79-5.16,4.51-2.44,2.87-5.52,5.66-9.24,8.38l-.43-.64c2.43-2.29,4.69-4.9,6.77-7.84,2.07-2.93,3.47-5.41,4.19-7.41Zm10.53,43.61c3.87,.29,6.45,.43,7.73,.43s1.93-.86,1.93-2.58v-21.91h-8.16c-1.86,0-3.58,.21-5.16,.64l-1.93-1.93h24.71l3.22-3.01,3.65,4.3h-13.32v22.99c.14,3.87-1.65,6.16-5.37,6.88,0-2.01-2.44-3.58-7.3-4.73v-1.07Zm-1.93-38.24h18.26l3.01-2.79,3.65,4.08h-17.83c-1.86,0-3.58,.21-5.16,.64l-1.93-1.93Z"/>
  </g>
  <text class="cls-3" transform="translate(66.85 103.61)"><tspan x="0" y="0">Pony Travel</tspan></text>
</svg>